<svg xmlns="http://www.w3.org/2000/svg" viewBox="0 0 16 16.02"><path d="M15.84 6.39a7.91 7.91 0 00-.47-1.5 8.12 8.12 0 00-1.71-2.54 8.61 8.61 0 00-1.19-1 8 8 0 00-8.94 0 8.61 8.61 0 00-1.19 1A8.12 8.12 0 00.63 4.89a7.91 7.91 0 00-.47 1.5 8.36 8.36 0 000 3.23 7.69 7.69 0 00.47 1.5 8.12 8.12 0 001.71 2.54 8.61 8.61 0 001.19 1 8 8 0 008.94 0 8.61 8.61 0 001.19-1 8.12 8.12 0 001.71-2.54 7.69 7.69 0 00.47-1.5 8.36 8.36 0 000-3.23zm-1.01 1.6a16.18 16.18 0 00-4.76-.23l-.15-.35c-.14-.33-.29-.67-.45-1a8.89 8.89 0 003.81-2.7 6.78 6.78 0 011.55 4.28zm-2.32-5.11a7.44 7.44 0 01-3.57 2.47 34 34 0 00-2.55-4 6.75 6.75 0 016.12 1.51zM6.36 1.37zm-1.28.46a38.72 38.72 0 012.54 3.93 25.84 25.84 0 01-6.31.84 6.83 6.83 0 013.78-4.77zM1.17 7.99v-.2a25.19 25.19 0 007-1c.2.38.39.77.56 1.16l-.27.08a10.84 10.84 0 00-5.56 4.51 6.75 6.75 0 01-1.73-4.55zM8 14.84a6.77 6.77 0 01-4.35-1.57l.15.12a9.23 9.23 0 015.36-4.27h.05a28.39 28.39 0 011.46 5.19 6.81 6.81 0 01-2.67.53zm3.82-1.17a30.63 30.63 0 00-1.33-4.88 9.9 9.9 0 014.26.3 6.82 6.82 0 01-2.93 4.58z" fill="#95e1d3" fill-rule="evenodd"/></svg>