<svg xmlns="http://www.w3.org/2000/svg" viewBox="0 0 63 61"><path d="M60 36h-2v5a3.05 3.05 0 01-.06.6 2.64 2.64 0 01-.12.4 1.77 1.77 0 01-.06.17 3.24 3.24 0 01-.17.32c0 .06-.06.13-.1.19a4.23 4.23 0 01-.34.4A3 3 0 0155 44a3 3 0 01-2.12-.88L45.76 36H18a3 3 0 01-3-3V3a3 3 0 013-3h42a3 3 0 013 3v30a3 3 0 01-3 3zm-15.48 3l6.32 6.32A6 6 0 0055 47v2a3 3 0 01-3 3H20.24l-8.12 8.12A3 3 0 0110 61a3 3 0 01-2.08-.87 2.64 2.64 0 01-.34-.41l-.1-.18a3.24 3.24 0 01-.17-.32 1.77 1.77 0 01-.13-.22A2.64 2.64 0 017 58v-6H3a3 3 0 01-3-3V15a3 3 0 013-3h9v21a6 6 0 006 6h26.52z" fill="#95e1d3" fill-rule="evenodd"/></svg>