<svg xmlns="http://www.w3.org/2000/svg" viewBox="0 0 16 13.76"><path d="M13.5 3.46V5.9h-1V3.46H10v-1h2.5V-.01h1v2.47H16v1zM6.59.99A2.56 2.56 0 018 3.32a2.73 2.73 0 01-1.24 2.1 1.37 1.37 0 00-.81 1.18 2.66 2.66 0 001.11 1.29 2.87 2.87 0 011.44 2.7c0 1.49-1.44 3.17-4.12 3.17C2 13.76 0 12.64 0 11.14s1.87-3 4.21-3h.73a1.6 1.6 0 01-.57-1.15 1.79 1.79 0 01.21-.79h-.39A3 3 0 011 3.29v-.15C1 1.5 2.76-.01 4.65-.01h4.22l-.95 1H6.59zM4.66 8.54c-1.62 0-3.07 1-3.07 2.15s1.17 2.1 2.78 2.1c2.28 0 3.08-.82 3.08-2a1.59 1.59 0 00-.06-.43c-.17-.69-.8-1-1.68-1.62a3.44 3.44 0 00-1.05-.2zm1.82-5.2A2.82 2.82 0 004.12.78C3 .75 2.3 1.82 2.49 3.22a2.84 2.84 0 002.31 2.6c1.09.03 1.86-1.08 1.68-2.48z" fill="#95e1d3" fill-rule="evenodd"/></svg>