<svg xmlns="http://www.w3.org/2000/svg" viewBox="0 0 28 32"><title>equalizer</title><path d="M26.5,16.5h-3A1.5,1.5,0,0,1,22,15V9a1.5,1.5,0,0,1,1.5-1.5h3A1.5,1.5,0,0,1,28,9v6A1.5,1.5,0,0,1,26.5,16.5Zm-3-15a1.5,1.5,0,0,1,3,0V6h-3Zm-8,23h-3A1.5,1.5,0,0,1,11,23V17a1.5,1.5,0,0,1,1.5-1.5h3A1.5,1.5,0,0,1,17,17v6A1.5,1.5,0,0,1,15.5,24.5Zm-3-23a1.5,1.5,0,0,1,3,0V14h-3Zm-8,19h-3A1.5,1.5,0,0,1,0,19V13a1.5,1.5,0,0,1,1.5-1.5h3A1.5,1.5,0,0,1,6,13v6A1.5,1.5,0,0,1,4.5,20.5Zm-3-19a1.5,1.5,0,0,1,3,0V10h-3Zm3,29a1.5,1.5,0,0,1-3,0V22h3Zm11,0a1.5,1.5,0,0,1-3,0V26h3Zm11,0a1.5,1.5,0,0,1-3,0V18h3Z" fill="#95e1d3" fill-rule="evenodd"/></svg>