<svg xmlns="http://www.w3.org/2000/svg" viewBox="0 0 30.02 30.02"><title>picture</title><path d="M30,24a1.5,1.5,0,0,1-1,1.41v1.68a1.5,1.5,0,1,1-1,2.83,1.49,1.49,0,0,1-.93-.92H25.41a1.49,1.49,0,0,1-2.82,0H20.91a1.49,1.49,0,0,1-2.82,0H16.41a1.49,1.49,0,0,1-2.82,0H11.91a1.49,1.49,0,0,1-2.82,0H7.41a1.49,1.49,0,0,1-2.82,0H2.91A1.5,1.5,0,0,1,.07,28,1.54,1.54,0,0,1,1,27.09V25.41a1.49,1.49,0,0,1,0-2.82V20.91a1.49,1.49,0,0,1,0-2.82V16.41a1.49,1.49,0,0,1,0-2.82V11.91A1.49,1.49,0,0,1,1,9.09V7.41A1.49,1.49,0,0,1,1,4.59V2.91A1.5,1.5,0,1,1,2,.08,1.49,1.49,0,0,1,2.91,1H4.59A1.49,1.49,0,0,1,7.41,1H9.09a1.49,1.49,0,0,1,2.82,0h1.68a1.49,1.49,0,0,1,2.82,0h1.68a1.49,1.49,0,0,1,2.82,0h1.68a1.49,1.49,0,0,1,2.82,0h1.68a1.5,1.5,0,0,1,2.84,1,1.54,1.54,0,0,1-.93.92V4.59a1.49,1.49,0,0,1,0,2.82V9.09a1.49,1.49,0,0,1,0,2.82v1.68a1.49,1.49,0,0,1,0,2.82v1.68a1.49,1.49,0,0,1,0,2.82v1.68A1.5,1.5,0,0,1,30,24ZM26,4H4V26H26ZM13,20l7-8.5,4.5,7v6H5.5l6-6Zm-3-7a3,3,0,1,1,3-3A3,3,0,0,1,10,13Z" transform="translate(0.01 0.01)" fill="#fff" fill-rule="evenodd"/></svg>