<svg xmlns="http://www.w3.org/2000/svg" viewBox="0 0 16.01 14.27"><title>speech bubble</title><path d="M8.45,12.24A10.47,10.47,0,0,1,6.77,12a6.37,6.37,0,0,1-5.65,2.23c2.45-1.15,2.39-3.07,2-3.32A5.62,5.62,0,0,1,0,6.14C0,2.74,3.74,0,8.45,0S16,2.74,16,6.14,13.15,12.24,8.45,12.24ZM4.27,4.76a1.5,1.5,0,1,0,1.5,1.5h0a1.5,1.5,0,0,0-1.5-1.49ZM8,4.76a1.5,1.5,0,1,0,1.5,1.5h0A1.5,1.5,0,0,0,8,4.76Zm3.75,0a1.5,1.5,0,1,0,1.5,1.5h0a1.5,1.5,0,0,0-1.5-1.49Z" transform="translate(-0.01 0)" fill="#95e1d3" fill-rule="evenodd"/></svg>