<svg xmlns="http://www.w3.org/2000/svg" viewBox="0 0 32 32"><title>book</title><path d="M31.07,25.89l-14.48,6a1.51,1.51,0,0,1-1.18,0l-14.48-6A1.5,1.5,0,0,1,0,24.5V1.5A1.5,1.5,0,0,1,1.5,0a1.56,1.56,0,0,1,.57.11h0L16,5.88,29.91.12h0A1.66,1.66,0,0,1,30.5,0,1.5,1.5,0,0,1,32,1.5v23A1.5,1.5,0,0,1,31.07,25.89ZM14.5,8.5,3,3.74V23.5l11.5,4.76ZM29,3.74,17.5,8.5V28.26L29,23.5Zm-9.12,6.89,5.5-2.5h0A1.68,1.68,0,0,1,26,8a1.5,1.5,0,0,1,.62,2.87h0l-5.5,2.5h0a1.68,1.68,0,0,1-.62.13,1.5,1.5,0,0,1-.62-2.87Zm0,5.5h0l5.5-2.5h0A1.68,1.68,0,0,1,26,13.5a1.5,1.5,0,0,1,.62,2.87l-5.5,2.5h0a1.48,1.48,0,0,1-.62.14,1.5,1.5,0,0,1-.62-2.87Zm0,5.5h0l5.5-2.5h0A1.68,1.68,0,0,1,26,19a1.5,1.5,0,0,1,.62,2.87h0l-5.5,2.5h0a1.68,1.68,0,0,1-.62.13,1.5,1.5,0,0,1-.62-2.87ZM6,8a1.68,1.68,0,0,1,.62.13h0l5.5,2.5h0a1.5,1.5,0,0,1-.62,2.87,1.68,1.68,0,0,1-.62-.13h0l-5.5-2.5h0A1.5,1.5,0,0,1,6,8Zm0,5.5a1.68,1.68,0,0,1,.62.13h0l5.5,2.5h0A1.5,1.5,0,0,1,11.5,19a1.48,1.48,0,0,1-.62-.14h0l-5.5-2.5h0A1.5,1.5,0,0,1,6,13.5ZM6,19a1.68,1.68,0,0,1,.62.13h0l5.5,2.5h0a1.5,1.5,0,0,1-.62,2.87,1.68,1.68,0,0,1-.62-.13h0l-5.5-2.5h0A1.5,1.5,0,0,1,6,19Z" transform="translate(0 0)" fill="#95e1d3" fill-rule="evenodd"/></svg>