<svg xmlns="http://www.w3.org/2000/svg" viewBox="0 0 63 61"><title>speech</title><path d="M60,36H58v5h0a3.05,3.05,0,0,1-.06.6,2.64,2.64,0,0,1-.12.4,1.77,1.77,0,0,1-.06.17,3.24,3.24,0,0,1-.17.32c0,.06-.06.13-.1.19a4.23,4.23,0,0,1-.34.4l0,0A3,3,0,0,1,55,44h0a3,3,0,0,1-2.12-.88L45.76,36H18a3,3,0,0,1-3-3V3a3,3,0,0,1,3-3H60a3,3,0,0,1,3,3V33a3,3,0,0,1-3,3ZM44.52,39l6.32,6.32h0A6,6,0,0,0,55,47v2a3,3,0,0,1-3,3H20.24l-8.12,8.12A3,3,0,0,1,10,61h0a3,3,0,0,1-2.08-.87l0,0a2.64,2.64,0,0,1-.34-.41l-.1-.18a3.24,3.24,0,0,1-.17-.32A1.77,1.77,0,0,1,7.18,59,2.64,2.64,0,0,1,7,58H7V52H3a3,3,0,0,1-3-3V15H0a3,3,0,0,1,3-3h9V33a6,6,0,0,0,6,6H44.52Z" transform="translate(0 0)" fill="#95e1d3" fill-rule="evenodd"/></svg>