<svg xmlns="http://www.w3.org/2000/svg" viewBox="0 0 19.43 11.25"><title>view</title><path d="M19.43,5.66v0h0v0h0a.72.72,0,0,1-.2.41c-.2.25-.43.48-.65.71A16.76,16.76,0,0,1,14.45,10a11.09,11.09,0,0,1-3.09,1.12A9,9,0,0,1,7.82,11a13.62,13.62,0,0,1-5.5-2.86,14.54,14.54,0,0,1-2.11-2,.78.78,0,0,1,0-1c.2-.24.42-.47.65-.7A16.53,16.53,0,0,1,5,1.27,11,11,0,0,1,8.07.15,8.67,8.67,0,0,1,11.62.2a13.44,13.44,0,0,1,5.5,2.86,15,15,0,0,1,2.11,2,.88.88,0,0,1,.2.41h0v0h0v.12ZM9.71,1.82a3.65,3.65,0,1,0,3.64,3.65A3.65,3.65,0,0,0,9.71,1.82Zm0,5.47a1.83,1.83,0,1,1,1.82-1.83h0A1.82,1.82,0,0,1,9.71,7.29Z" transform="translate(0 0.01)" fill="#95e1d3" fill-rule="evenodd"/></svg>