<svg xmlns="http://www.w3.org/2000/svg" viewBox="0 0 25.6 25.6"><title>instagram</title><path d="M22.39,25.61H3.19A3.2,3.2,0,0,1,0,22.41H0V3.21A3.2,3.2,0,0,1,3.19,0h19.2a3.2,3.2,0,0,1,3.2,3.2h0v19.2a3.2,3.2,0,0,1-3.2,3.2ZM12.79,7.85a4.94,4.94,0,0,0-4.5,2.88h0l0,0c0,.11-.09.22-.13.33l-.06.15c0,.11-.07.23-.1.34l0,.16c0,.12,0,.25-.06.37a.77.77,0,0,0,0,.15,4.71,4.71,0,0,0,0,.53,5,5,0,1,0,9.92,0v0a4.71,4.71,0,0,0,0-.53l0-.15a2.38,2.38,0,0,0-.06-.37.94.94,0,0,0,0-.16c0-.11-.06-.23-.1-.34l-.06-.15-.12-.33,0,0h0a4.94,4.94,0,0,0-4.49-2.88Zm9.92-3.68a1.28,1.28,0,0,0-1.28-1.28H18.87a1.28,1.28,0,0,0-1.28,1.28h0V6.73A1.27,1.27,0,0,0,18.86,8h2.57a1.28,1.28,0,0,0,1.28-1.28h0Zm0,6.56H20.35A7.84,7.84,0,1,1,5.23,14.88a7.7,7.7,0,0,1,0-4.15H2.87V21.45a1.27,1.27,0,0,0,1.27,1.28H21.43a1.28,1.28,0,0,0,1.28-1.28h0V10.73Z" transform="translate(0.01 -0.01)" fill="#f38181" fill-rule="evenodd"/></svg>