<svg xmlns="http://www.w3.org/2000/svg" viewBox="0 0 25.6 20.78"><title>twitter</title><path d="M17.42,0a5.39,5.39,0,0,1,4.15,1.65A8.56,8.56,0,0,0,24.26.75l.65-.36a5.18,5.18,0,0,1-1.7,2.47,2.58,2.58,0,0,1-.57.41h0a9.91,9.91,0,0,0,3-.8h0a8.46,8.46,0,0,1-1.78,2L23,5.18a15.94,15.94,0,0,1-.24,3.38C21.45,14.45,18,18.45,12.48,20.17A15.87,15.87,0,0,1,5,20.48a19.81,19.81,0,0,1-3.08-1A11.66,11.66,0,0,1,.47,18.7L0,18.42a9.44,9.44,0,0,0,1.68.06c.51-.08,1-.06,1.5-.16a10.82,10.82,0,0,0,3.15-1.14,5.8,5.8,0,0,0,1.42-.93A4.62,4.62,0,0,1,6.2,16a5.28,5.28,0,0,1-3.33-3.36,5.14,5.14,0,0,0,2.34-.11,3.75,3.75,0,0,1-1.72-.69A5,5,0,0,1,1,7.32l.54.25a5.13,5.13,0,0,0,1.1.31,1.47,1.47,0,0,0,.72.06h0c-.26-.3-.69-.51-1-.84A5.35,5.35,0,0,1,1.21,2.34,5.67,5.67,0,0,1,1.78,1h0a3.16,3.16,0,0,0,.48.55A9.23,9.23,0,0,0,3.84,3a15.48,15.48,0,0,0,6.42,3.1,9.86,9.86,0,0,0,2.36.31,4.81,4.81,0,0,1,0-2.47,5.18,5.18,0,0,1,3-3.52A6.08,6.08,0,0,1,16.78.09Z" transform="translate(-0.01 0)" fill="#f38181" fill-rule="evenodd"/></svg>