<svg xmlns="http://www.w3.org/2000/svg" xmlns:xlink="http://www.w3.org/1999/xlink"><symbol id="icon-magnifying-glass" viewBox="0 0 17.66 17.65"><path d="M17.18 14.84a1.651 1.651 0 11-2.34 2.33l-4.79-4.84a6.62 6.62 0 112.29-2.29l4.84 4.84zM6.66 1.7a5 5 0 105 5 5 5 0 00-5-5z" fill-rule="evenodd"/></symbol><symbol id="icon-shopping-cart" viewBox="0 0 17.6 14.03"><path d="M17.53 3.09l-2.48 5.5a.79.79 0 01-.7.48l-7.12.48.41 1.18h7.76a1.65 1.65 0 11-1.65 1.65h-7.7a1.65 1.65 0 11-1.65-1.65h1.49L2.71 1.65H.82A.82.82 0 01-.01.83a.82.82 0 01.83-.84H3.3a.84.84 0 01.78.56l.48 1.37h12.21a.82.82 0 01.83.82 1 1 0 01-.07.35zm-12.39.49l1.52 4.35 7.09-.47 1.75-3.88z" fill-rule="evenodd"/></symbol></svg>