<svg xmlns="http://www.w3.org/2000/svg" xmlns:xlink="http://www.w3.org/1999/xlink"><symbol id="icon-magnifying-glass" viewBox="0 0 17.66 17.65"><path d="M17.18 14.84a1.651 1.651 0 11-2.34 2.33l-4.79-4.84a6.62 6.62 0 112.29-2.29l4.84 4.84zM6.66 1.7a5 5 0 105 5 5 5 0 00-5-5z" fill-rule="evenodd"/></symbol><symbol id="icon-shopping-cart" viewBox="0 0 17.6 14.03"><path d="M17.53 3.09l-2.48 5.5a.79.79 0 01-.7.48l-7.12.48.41 1.18h7.76a1.65 1.65 0 11-1.65 1.65h-7.7a1.65 1.65 0 11-1.65-1.65h1.49L2.71 1.65H.82A.82.82 0 01-.01.83a.82.82 0 01.83-.84H3.3a.84.84 0 01.78.56l.48 1.37h12.21a.82.82 0 01.83.82 1 1 0 01-.07.35zm-12.39.49l1.52 4.35 7.09-.47 1.75-3.88z" fill-rule="evenodd"/></symbol><symbol id="icon-users" viewBox="0 0 31.938 22.53"><path d="M31.95 21.53v.01a1 1 0 01-1 .99h-7.412a1.248 1.248 0 00.972-1.21s0-4.5-3.3-6.14a5.822 5.822 0 00-2.206-.73l.02-1.95a3.672 3.672 0 01-1.011-2.43c-.482.13-.641-.57-.67-1.02-.026-.43-.279-1.78.31-1.66a11.832 11.832 0 01-.165-2.14 3.885 3.885 0 013.861-3.21c2.649.11 3.7 1.69 3.845 3.2a11.926 11.926 0 01-.172 2.15c.589-.12.333 1.23.3 1.66-.025.45-.188 1.15-.669 1.01a3.675 3.675 0 01-1.012 2.43l.018 1.94s.488.28 2.546 1.13 1.412.22 3.088 1.05c2.649 1.31 2.649 4.92 2.649 4.92zm-14.927-6.66c2.262.94 1.552.24 3.395 1.15 2.912 1.44 2.912 5.42 2.912 5.42a1.093 1.093 0 01-1.093 1.09H1.093A1.093 1.093 0 010 21.44s0-3.98 2.912-5.42c1.843-.91 1.133-.17 3.4-1.11a25.01 25.01 0 002.8-1.26l.021-2.15a4.04 4.04 0 01-1.11-2.67c-.53.15-.705-.62-.736-1.11s-.307-1.96.339-1.83a13.029 13.029 0 01-.18-2.36A4.272 4.272 0 0111.69.01c2.911.12 4.065 1.86 4.226 3.52a13.189 13.189 0 01-.189 2.36c.647-.13.366 1.35.334 1.82-.028.5-.207 1.27-.736 1.11a4 4 0 01-1.111 2.67l.019 2.14a30.239 30.239 0 002.79 1.24z" fill-rule="evenodd"/></symbol></svg>