<svg xmlns="http://www.w3.org/2000/svg" xmlns:xlink="http://www.w3.org/1999/xlink"><symbol id="icon-alarm" viewBox="0 0 32.01 30.52"><path d="M30.75 9.5a15.73 15.73 0 00-8.24-8.24 5.87 5.87 0 018.24 8.24zm-.24 6.5a14.46 14.46 0 01-4 9.94l2 2a1.5 1.5 0 010 2.1 1.53 1.53 0 01-1.05.43 1.51 1.51 0 01-1.05-.43l-2.18-2.18a14.47 14.47 0 01-16.57 0l-2.09 2.2A1.5 1.5 0 013.42 28l2-2a14.5 14.5 0 1125.09-10zM16.01 4.5A11.5 11.5 0 1027.51 16a11.5 11.5 0 00-11.5-11.5zm6 13h-6a1.5 1.5 0 01-1.5-1.5V8a1.5 1.5 0 013 0v6.5h4.5a1.5 1.5 0 010 3zM1.3 9.71a6 6 0 018.42-8.42A16 16 0 001.3 9.71z" fill-rule="evenodd"/></symbol><symbol id="icon-book" viewBox="0 0 32 32"><path d="M31.07 25.89l-14.48 6a1.51 1.51 0 01-1.18 0l-14.48-6A1.5 1.5 0 010 24.5v-23A1.5 1.5 0 011.5 0a1.56 1.56 0 01.57.11L16 5.88 29.91.12A1.66 1.66 0 0130.5 0 1.5 1.5 0 0132 1.5v23a1.5 1.5 0 01-.93 1.39zM14.5 8.5L3 3.74V23.5l11.5 4.76zM29 3.74L17.5 8.5v19.76L29 23.5zm-9.12 6.89l5.5-2.5A1.68 1.68 0 0126 8a1.5 1.5 0 01.62 2.87l-5.5 2.5a1.68 1.68 0 01-.62.13 1.5 1.5 0 01-.62-2.87zm0 5.5l5.5-2.5a1.68 1.68 0 01.62-.13 1.5 1.5 0 01.62 2.87l-5.5 2.5a1.48 1.48 0 01-.62.14 1.5 1.5 0 01-.62-2.87zm0 5.5l5.5-2.5A1.68 1.68 0 0126 19a1.5 1.5 0 01.62 2.87l-5.5 2.5a1.68 1.68 0 01-.62.13 1.5 1.5 0 01-.62-2.87zM6 8a1.68 1.68 0 01.62.13l5.5 2.5a1.5 1.5 0 01-.62 2.87 1.68 1.68 0 01-.62-.13l-5.5-2.5A1.5 1.5 0 016 8zm0 5.5a1.68 1.68 0 01.62.13l5.5 2.5A1.5 1.5 0 0111.5 19a1.48 1.48 0 01-.62-.14l-5.5-2.5A1.5 1.5 0 016 13.5zM6 19a1.68 1.68 0 01.62.13l5.5 2.5a1.5 1.5 0 01-.62 2.87 1.68 1.68 0 01-.62-.13l-5.5-2.5A1.5 1.5 0 016 19z" fill-rule="evenodd"/></symbol><symbol id="icon-computer-ok" viewBox="0 0 31 28"><path d="M29.5 23H20v2.5l2 2v.5H9v-.5l2-2V23H1.5A1.5 1.5 0 010 21.5v-20A1.5 1.5 0 011.5 0h28A1.5 1.5 0 0131 1.5v20a1.5 1.5 0 01-1.5 1.5zM29 2H2v17h27zM12.5 9a1.5 1.5 0 011.06.44l.94.94 2.94-2.94a1.5 1.5 0 112.19 2.05l-.07.07-4 4a1.49 1.49 0 01-2.12 0l-2-2A1.5 1.5 0 0112.5 9z" fill-rule="evenodd"/></symbol><symbol id="icon-home" viewBox="0 0 32 30.5"><path d="M32 16a1.5 1.5 0 01-1.49 1.5 1.52 1.52 0 01-1-.41L16 3.66 2.56 17.07a1.55 1.55 0 01-1.06.43 1.5 1.5 0 01-1-2.58L14.92.46A1.54 1.54 0 0116 0h.16a1.54 1.54 0 01.94.47L23 6.38V5a1.5 1.5 0 013 0v4.38L31.6 15a1.49 1.49 0 01.4 1zm-3 2.5V29a1.5 1.5 0 01-1.5 1.5h-3v-12h-6v12h-14A1.5 1.5 0 013 29V18.5l13-13zm-15.5 0h-6v6h6z" fill-rule="evenodd"/></symbol><symbol id="icon-image" viewBox="0 0 32 32"><path d="M30.5 32h-29A1.5 1.5 0 010 30.5v-29A1.5 1.5 0 011.5 0h29A1.5 1.5 0 0132 1.5v29a1.5 1.5 0 01-1.5 1.5zM29 3H3v26h26zM6.5 4.5H12a1.5 1.5 0 010 3H7.5V12a1.5 1.5 0 01-3 0V4.5zM4.5 20a1.5 1.5 0 013 0v4.5H12a1.5 1.5 0 010 3H4.5v-2zM20 4.5h7.5V12a1.5 1.5 0 01-3 0V7.5H20a1.5 1.5 0 010-3zm0 20h4.5V20a1.5 1.5 0 013 0v7.5H20a1.5 1.5 0 010-3z" fill-rule="evenodd"/></symbol><symbol id="icon-line-graph" viewBox="0 0 32 32"><path d="M30.5 32h-29A1.5 1.5 0 010 30.5v-29A1.5 1.5 0 011.5 0h29A1.5 1.5 0 0132 1.5v29a1.5 1.5 0 01-1.5 1.5zM29 3H3v26h26zM5.22 16.24l4-2.5a1.53 1.53 0 011.62 0l6.63 4.42 7.63-5.4a1.5 1.5 0 011.77 2.43l-8.5 6a1.47 1.47 0 01-1.74 0L10 16.8l-3.13 2A1.52 1.52 0 016 19a1.5 1.5 0 01-.78-2.78z" fill-rule="evenodd"/></symbol><symbol id="icon-magnifying-glass" viewBox="0 0 17.66 17.65"><path d="M17.18 14.84a1.651 1.651 0 11-2.34 2.33l-4.79-4.84a6.62 6.62 0 112.29-2.29l4.84 4.84zM6.66 1.7a5 5 0 105 5 5 5 0 00-5-5z" fill-rule="evenodd"/></symbol><symbol id="icon-shopping-cart" viewBox="0 0 17.6 14.03"><path d="M17.53 3.09l-2.48 5.5a.79.79 0 01-.7.48l-7.12.48.41 1.18h7.76a1.65 1.65 0 11-1.65 1.65h-7.7a1.65 1.65 0 11-1.65-1.65h1.49L2.71 1.65H.82A.82.82 0 01-.01.83a.82.82 0 01.83-.84H3.3a.84.84 0 01.78.56l.48 1.37h12.21a.82.82 0 01.83.82 1 1 0 01-.07.35zm-12.39.49l1.52 4.35 7.09-.47 1.75-3.88z" fill-rule="evenodd"/></symbol><symbol id="icon-users" viewBox="0 0 31.938 22.53"><path d="M31.95 21.53v.01a1 1 0 01-1 .99h-7.412a1.248 1.248 0 00.972-1.21s0-4.5-3.3-6.14a5.822 5.822 0 00-2.206-.73l.02-1.95a3.672 3.672 0 01-1.011-2.43c-.482.13-.641-.57-.67-1.02-.026-.43-.279-1.78.31-1.66a11.832 11.832 0 01-.165-2.14 3.885 3.885 0 013.861-3.21c2.649.11 3.7 1.69 3.845 3.2a11.926 11.926 0 01-.172 2.15c.589-.12.333 1.23.3 1.66-.025.45-.188 1.15-.669 1.01a3.675 3.675 0 01-1.012 2.43l.018 1.94s.488.28 2.546 1.13 1.412.22 3.088 1.05c2.649 1.31 2.649 4.92 2.649 4.92zm-14.927-6.66c2.262.94 1.552.24 3.395 1.15 2.912 1.44 2.912 5.42 2.912 5.42a1.093 1.093 0 01-1.093 1.09H1.093A1.093 1.093 0 010 21.44s0-3.98 2.912-5.42c1.843-.91 1.133-.17 3.4-1.11a25.01 25.01 0 002.8-1.26l.021-2.15a4.04 4.04 0 01-1.11-2.67c-.53.15-.705-.62-.736-1.11s-.307-1.96.339-1.83a13.029 13.029 0 01-.18-2.36A4.272 4.272 0 0111.69.01c2.911.12 4.065 1.86 4.226 3.52a13.189 13.189 0 01-.189 2.36c.647-.13.366 1.35.334 1.82-.028.5-.207 1.27-.736 1.11a4 4 0 01-1.111 2.67l.019 2.14a30.239 30.239 0 002.79 1.24z" fill-rule="evenodd"/></symbol></svg>