<svg xmlns="http://www.w3.org/2000/svg" xmlns:xlink="http://www.w3.org/1999/xlink"><symbol id="arrow_right" viewBox="0 0 11.99 20.97"><path d="M11.48 18.35l-7.86-7.86 8-8A1.5 1.5 0 009.46.41l-9 9A1.47 1.47 0 000 10.49a1.5 1.5 0 00.46 1.07l9 9a1.5 1.5 0 102-2.2z" fill-rule="evenodd"/></symbol><symbol id="arrow_up" viewBox="0 0 21.03 12.03"><path d="M2.64 11.47l7.86-7.85 8 8a1.5 1.5 0 002.12-2.12l-9-9A1.47 1.47 0 0010.5 0a1.47 1.47 0 00-1.09.46l-9 9a1.5 1.5 0 002.1 2.14z"/></symbol><symbol id="icon-alarm" viewBox="0 0 32.01 30.52"><path d="M30.75 9.5a15.73 15.73 0 00-8.24-8.24 5.87 5.87 0 018.24 8.24zm-.24 6.5a14.46 14.46 0 01-4 9.94l2 2a1.5 1.5 0 010 2.1 1.53 1.53 0 01-1.05.43 1.51 1.51 0 01-1.05-.43l-2.18-2.18a14.47 14.47 0 01-16.57 0l-2.09 2.2A1.5 1.5 0 013.42 28l2-2a14.5 14.5 0 1125.09-10zM16.01 4.5A11.5 11.5 0 1027.51 16a11.5 11.5 0 00-11.5-11.5zm6 13h-6a1.5 1.5 0 01-1.5-1.5V8a1.5 1.5 0 013 0v6.5h4.5a1.5 1.5 0 010 3zM1.3 9.71a6 6 0 018.42-8.42A16 16 0 001.3 9.71z" fill-rule="evenodd"/></symbol><symbol id="icon-book" viewBox="0 0 32 32"><path d="M31.07 25.89l-14.48 6a1.51 1.51 0 01-1.18 0l-14.48-6A1.5 1.5 0 010 24.5v-23A1.5 1.5 0 011.5 0a1.56 1.56 0 01.57.11L16 5.88 29.91.12A1.66 1.66 0 0130.5 0 1.5 1.5 0 0132 1.5v23a1.5 1.5 0 01-.93 1.39zM14.5 8.5L3 3.74V23.5l11.5 4.76zM29 3.74L17.5 8.5v19.76L29 23.5zm-9.12 6.89l5.5-2.5A1.68 1.68 0 0126 8a1.5 1.5 0 01.62 2.87l-5.5 2.5a1.68 1.68 0 01-.62.13 1.5 1.5 0 01-.62-2.87zm0 5.5l5.5-2.5a1.68 1.68 0 01.62-.13 1.5 1.5 0 01.62 2.87l-5.5 2.5a1.48 1.48 0 01-.62.14 1.5 1.5 0 01-.62-2.87zm0 5.5l5.5-2.5A1.68 1.68 0 0126 19a1.5 1.5 0 01.62 2.87l-5.5 2.5a1.68 1.68 0 01-.62.13 1.5 1.5 0 01-.62-2.87zM6 8a1.68 1.68 0 01.62.13l5.5 2.5a1.5 1.5 0 01-.62 2.87 1.68 1.68 0 01-.62-.13l-5.5-2.5A1.5 1.5 0 016 8zm0 5.5a1.68 1.68 0 01.62.13l5.5 2.5A1.5 1.5 0 0111.5 19a1.48 1.48 0 01-.62-.14l-5.5-2.5A1.5 1.5 0 016 13.5zM6 19a1.68 1.68 0 01.62.13l5.5 2.5a1.5 1.5 0 01-.62 2.87 1.68 1.68 0 01-.62-.13l-5.5-2.5A1.5 1.5 0 016 19z" fill-rule="evenodd"/></symbol><symbol id="icon-bullseye" viewBox="0 0 32 32"><path d="M16 32a16 16 0 1116-16 16 16 0 01-16 16zm0-29a13 13 0 1013 13A13 13 0 0016 3zm0 22.5a9.5 9.5 0 119.5-9.5 9.5 9.5 0 01-9.5 9.5zm0-16a6.5 6.5 0 106.5 6.5A6.5 6.5 0 0016 9.5zm0 9.5a3 3 0 113-3 3 3 0 01-3 3z" fill-rule="evenodd"/></symbol><symbol id="icon-computer-ok" viewBox="0 0 31 28"><path d="M29.5 23H20v2.5l2 2v.5H9v-.5l2-2V23H1.5A1.5 1.5 0 010 21.5v-20A1.5 1.5 0 011.5 0h28A1.5 1.5 0 0131 1.5v20a1.5 1.5 0 01-1.5 1.5zM29 2H2v17h27zM12.5 9a1.5 1.5 0 011.06.44l.94.94 2.94-2.94a1.5 1.5 0 112.19 2.05l-.07.07-4 4a1.49 1.49 0 01-2.12 0l-2-2A1.5 1.5 0 0112.5 9z" fill-rule="evenodd"/></symbol><symbol id="icon-equalizer" viewBox="0 0 28 32"><path d="M26.5 16.5h-3A1.5 1.5 0 0122 15V9a1.5 1.5 0 011.5-1.5h3A1.5 1.5 0 0128 9v6a1.5 1.5 0 01-1.5 1.5zm-3-15a1.5 1.5 0 013 0V6h-3zm-8 23h-3A1.5 1.5 0 0111 23v-6a1.5 1.5 0 011.5-1.5h3A1.5 1.5 0 0117 17v6a1.5 1.5 0 01-1.5 1.5zm-3-23a1.5 1.5 0 013 0V14h-3zm-8 19h-3A1.5 1.5 0 010 19v-6a1.5 1.5 0 011.5-1.5h3A1.5 1.5 0 016 13v6a1.5 1.5 0 01-1.5 1.5zm-3-19a1.5 1.5 0 013 0V10h-3zm3 29a1.5 1.5 0 01-3 0V22h3zm11 0a1.5 1.5 0 01-3 0V26h3zm11 0a1.5 1.5 0 01-3 0V18h3z" fill-rule="evenodd"/></symbol><symbol id="icon-facebook" viewBox="0 0 12.01 25.61"><path d="M11.99 0v4.13s-3-.3-3.8.87c-.42.63-.2 2.49-.2 3.83h4c-.34 1.56-.59 2.62-.84 4H7.99v12.8H2.38V12.86H-.01v-4h2.36c.12-2.98.16-5.86 1.64-7.38C5.62-.19 7.2 0 11.99 0z" fill-rule="evenodd"/></symbol><symbol id="icon-home" viewBox="0 0 32 30.5"><path d="M32 16a1.5 1.5 0 01-1.49 1.5 1.52 1.52 0 01-1-.41L16 3.66 2.56 17.07a1.55 1.55 0 01-1.06.43 1.5 1.5 0 01-1-2.58L14.92.46A1.54 1.54 0 0116 0h.16a1.54 1.54 0 01.94.47L23 6.38V5a1.5 1.5 0 013 0v4.38L31.6 15a1.49 1.49 0 01.4 1zm-3 2.5V29a1.5 1.5 0 01-1.5 1.5h-3v-12h-6v12h-14A1.5 1.5 0 013 29V18.5l13-13zm-15.5 0h-6v6h6z" fill-rule="evenodd"/></symbol><symbol id="icon-image" viewBox="0 0 32 32"><path d="M30.5 32h-29A1.5 1.5 0 010 30.5v-29A1.5 1.5 0 011.5 0h29A1.5 1.5 0 0132 1.5v29a1.5 1.5 0 01-1.5 1.5zM29 3H3v26h26zM6.5 4.5H12a1.5 1.5 0 010 3H7.5V12a1.5 1.5 0 01-3 0V4.5zM4.5 20a1.5 1.5 0 013 0v4.5H12a1.5 1.5 0 010 3H4.5v-2zM20 4.5h7.5V12a1.5 1.5 0 01-3 0V7.5H20a1.5 1.5 0 010-3zm0 20h4.5V20a1.5 1.5 0 013 0v7.5H20a1.5 1.5 0 010-3z" fill-rule="evenodd"/></symbol><symbol id="icon-instagram" viewBox="0 0 25.6 25.6"><path d="M22.4 25.6H3.2a3.2 3.2 0 01-3.19-3.2V3.2A3.2 3.2 0 013.2-.01h19.2a3.2 3.2 0 013.2 3.2v19.2a3.2 3.2 0 01-3.2 3.2zM12.8 7.84a4.94 4.94 0 00-4.5 2.88c0 .11-.09.22-.13.33l-.06.15c0 .11-.07.23-.1.34v.16c0 .12 0 .25-.06.37a.77.77 0 000 .15 4.71 4.71 0 000 .53 5 5 0 109.92 0 4.71 4.71 0 000-.53v-.15a2.38 2.38 0 00-.06-.37.94.94 0 000-.16c0-.11-.06-.23-.1-.34l-.06-.15-.12-.33a4.94 4.94 0 00-4.49-2.88zm9.92-3.68a1.28 1.28 0 00-1.28-1.28h-2.56a1.28 1.28 0 00-1.28 1.28v2.56a1.27 1.27 0 001.27 1.27h2.57a1.28 1.28 0 001.28-1.28zm0 6.56h-2.36a7.84 7.84 0 11-15.12 4.15 7.7 7.7 0 010-4.15H2.88v10.72a1.27 1.27 0 001.27 1.28h17.29a1.28 1.28 0 001.28-1.28V10.72z" fill-rule="evenodd"/></symbol><symbol id="icon-line-graph" viewBox="0 0 32 32"><path d="M30.5 32h-29A1.5 1.5 0 010 30.5v-29A1.5 1.5 0 011.5 0h29A1.5 1.5 0 0132 1.5v29a1.5 1.5 0 01-1.5 1.5zM29 3H3v26h26zM5.22 16.24l4-2.5a1.53 1.53 0 011.62 0l6.63 4.42 7.63-5.4a1.5 1.5 0 011.77 2.43l-8.5 6a1.47 1.47 0 01-1.74 0L10 16.8l-3.13 2A1.52 1.52 0 016 19a1.5 1.5 0 01-.78-2.78z" fill-rule="evenodd"/></symbol><symbol id="icon-magnifying-glass" viewBox="0 0 17.66 17.65"><path d="M17.18 14.84a1.651 1.651 0 11-2.34 2.33l-4.79-4.84a6.62 6.62 0 112.29-2.29l4.84 4.84zM6.66 1.7a5 5 0 105 5 5 5 0 00-5-5z" fill-rule="evenodd"/></symbol><symbol id="icon-picture" viewBox="0 0 30.02 30.02"><path d="M30.01 24.01a1.5 1.5 0 01-1 1.41v1.68a1.5 1.5 0 11-1.91 1.91h-1.68a1.49 1.49 0 01-1.9.92 1.52 1.52 0 01-.92-.92h-1.68a1.49 1.49 0 01-2.82 0h-1.68a1.49 1.49 0 01-2.82 0h-1.68a1.49 1.49 0 01-2.82 0H7.42a1.49 1.49 0 01-2.82 0H2.92a1.505 1.505 0 01-2.84-1 1.54 1.54 0 01.93-.91v-1.68a1.49 1.49 0 010-2.82v-1.68a1.49 1.49 0 010-2.82v-1.68a1.49 1.49 0 010-2.82v-1.68a1.49 1.49 0 010-2.82V7.42a1.49 1.49 0 010-2.82V2.92a1.5 1.5 0 111-2.83 1.49 1.49 0 01.91.92H4.6a1.49 1.49 0 012.82 0H9.1a1.49 1.49 0 012.82 0h1.68a1.49 1.49 0 012.82 0h1.68a1.49 1.49 0 012.82 0h1.68a1.49 1.49 0 012.82 0h1.68a1.5 1.5 0 111.91 1.91V4.6a1.49 1.49 0 010 2.82V9.1a1.49 1.49 0 010 2.82v1.68a1.49 1.49 0 010 2.82v1.68a1.49 1.49 0 010 2.82v1.68a1.5 1.5 0 011 1.41zm-4-20h-22v22h22zm-13 16l7-8.5 4.5 7v6h-19l6-6zm-3-7a3 3 0 113-3 3 3 0 01-3 3z" fill-rule="evenodd"/></symbol><symbol id="icon-pinterest" viewBox="0 0 19.6 25.65"><path d="M8.16 16.65c-.21.84-.42 1.71-.64 2.56a21.15 21.15 0 01-.72 2.47 13 13 0 01-2 3.53c-.58.66-.46.4-.63.36s-.16-.16-.16-.34a19.61 19.61 0 010-3.34 17.73 17.73 0 01.59-3.47c.41-2.07.9-4.09 1.41-6.17a1.12 1.12 0 00.09-.44 6.63 6.63 0 01-.43-1.7 5.58 5.58 0 01.14-1.95 3.23 3.23 0 011.88-2.34 2.22 2.22 0 011.73.14 1.86 1.86 0 01.87 1.24 4.47 4.47 0 01-.08 1.89c-.27 1.22-.62 2.14-.94 3.31a3.72 3.72 0 00-.19 1.81 2.13 2.13 0 00.85 1.28 2.48 2.48 0 001.62.46 3.56 3.56 0 002.65-1.57 9.22 9.22 0 001.68-4.69 12.29 12.29 0 00.07-2 5.45 5.45 0 00-1.13-3.12 5.27 5.27 0 00-2.51-1.72 8.34 8.34 0 00-3.75-.23 6.6 6.6 0 00-4.91 3.53 7.11 7.11 0 00-.84 3.41 4.43 4.43 0 00.68 2.46c.13.2.33.37.46.6a1.78 1.78 0 01-.12 1.16c-.11.43-.12 1-.62 1a1.35 1.35 0 01-.64-.24 5.12 5.12 0 01-2.42-3.68 8.77 8.77 0 010-3.23 9.23 9.23 0 014.4-6.15A10.45 10.45 0 018.46.14a12.32 12.32 0 011.6-.12 9.6 9.6 0 014.33.8 8.82 8.82 0 013 2.15 8.12 8.12 0 011.83 3.31 7.76 7.76 0 01.4 2.29 12.61 12.61 0 01-.31 2.37 9.32 9.32 0 01-3.83 6.45 6.92 6.92 0 01-4 1.1 4.63 4.63 0 01-2-.58 3.28 3.28 0 01-1.32-1.26z" fill-rule="evenodd"/></symbol><symbol id="icon-shopping-cart" viewBox="0 0 17.6 14.03"><path d="M17.53 3.09l-2.48 5.5a.79.79 0 01-.7.48l-7.12.48.41 1.18h7.76a1.65 1.65 0 11-1.65 1.65h-7.7a1.65 1.65 0 11-1.65-1.65h1.49L2.71 1.65H.82A.82.82 0 01-.01.83a.82.82 0 01.83-.84H3.3a.84.84 0 01.78.56l.48 1.37h12.21a.82.82 0 01.83.82 1 1 0 01-.07.35zm-12.39.49l1.52 4.35 7.09-.47 1.75-3.88z" fill-rule="evenodd"/></symbol><symbol id="icon-speech" viewBox="0 0 63 61"><path d="M60 36h-2v5a3.05 3.05 0 01-.06.6 2.64 2.64 0 01-.12.4 1.77 1.77 0 01-.06.17 3.24 3.24 0 01-.17.32c0 .06-.06.13-.1.19a4.23 4.23 0 01-.34.4A3 3 0 0155 44a3 3 0 01-2.12-.88L45.76 36H18a3 3 0 01-3-3V3a3 3 0 013-3h42a3 3 0 013 3v30a3 3 0 01-3 3zm-15.48 3l6.32 6.32A6 6 0 0055 47v2a3 3 0 01-3 3H20.24l-8.12 8.12A3 3 0 0110 61a3 3 0 01-2.08-.87 2.64 2.64 0 01-.34-.41l-.1-.18a3.24 3.24 0 01-.17-.32 1.77 1.77 0 01-.13-.22A2.64 2.64 0 017 58v-6H3a3 3 0 01-3-3V15a3 3 0 013-3h9v21a6 6 0 006 6h26.52z" fill-rule="evenodd"/></symbol><symbol id="icon-twitter" viewBox="0 0 25.6 20.78"><path d="M17.41 0a5.39 5.39 0 014.15 1.65 8.56 8.56 0 002.69-.9l.65-.36a5.18 5.18 0 01-1.7 2.47 2.58 2.58 0 01-.57.41 9.91 9.91 0 003-.8 8.46 8.46 0 01-1.78 2l-.86.71a15.94 15.94 0 01-.24 3.38c-1.31 5.89-4.76 9.89-10.28 11.61a15.87 15.87 0 01-7.48.31 19.81 19.81 0 01-3.08-1 11.66 11.66 0 01-1.45-.78l-.47-.28a9.44 9.44 0 001.68.06c.51-.08 1-.06 1.5-.16a10.82 10.82 0 003.15-1.14 5.8 5.8 0 001.42-.93A4.62 4.62 0 016.19 16a5.28 5.28 0 01-3.33-3.36 5.14 5.14 0 002.34-.11 3.75 3.75 0 01-1.72-.69A5 5 0 01.99 7.32l.54.25a5.13 5.13 0 001.1.31 1.47 1.47 0 00.72.06c-.26-.3-.69-.51-1-.84A5.35 5.35 0 011.2 2.34 5.67 5.67 0 011.77 1a3.16 3.16 0 00.48.55A9.23 9.23 0 003.83 3a15.48 15.48 0 006.42 3.1 9.86 9.86 0 002.36.31 4.81 4.81 0 010-2.47 5.18 5.18 0 013-3.52 6.08 6.08 0 011.16-.33z" fill-rule="evenodd"/></symbol><symbol id="icon-users" viewBox="0 0 31.938 22.53"><path d="M31.95 21.53v.01a1 1 0 01-1 .99h-7.412a1.248 1.248 0 00.972-1.21s0-4.5-3.3-6.14a5.822 5.822 0 00-2.206-.73l.02-1.95a3.672 3.672 0 01-1.011-2.43c-.482.13-.641-.57-.67-1.02-.026-.43-.279-1.78.31-1.66a11.832 11.832 0 01-.165-2.14 3.885 3.885 0 013.861-3.21c2.649.11 3.7 1.69 3.845 3.2a11.926 11.926 0 01-.172 2.15c.589-.12.333 1.23.3 1.66-.025.45-.188 1.15-.669 1.01a3.675 3.675 0 01-1.012 2.43l.018 1.94s.488.28 2.546 1.13 1.412.22 3.088 1.05c2.649 1.31 2.649 4.92 2.649 4.92zm-14.927-6.66c2.262.94 1.552.24 3.395 1.15 2.912 1.44 2.912 5.42 2.912 5.42a1.093 1.093 0 01-1.093 1.09H1.093A1.093 1.093 0 010 21.44s0-3.98 2.912-5.42c1.843-.91 1.133-.17 3.4-1.11a25.01 25.01 0 002.8-1.26l.021-2.15a4.04 4.04 0 01-1.11-2.67c-.53.15-.705-.62-.736-1.11s-.307-1.96.339-1.83a13.029 13.029 0 01-.18-2.36A4.272 4.272 0 0111.69.01c2.911.12 4.065 1.86 4.226 3.52a13.189 13.189 0 01-.189 2.36c.647-.13.366 1.35.334 1.82-.028.5-.207 1.27-.736 1.11a4 4 0 01-1.111 2.67l.019 2.14a30.239 30.239 0 002.79 1.24z" fill-rule="evenodd"/></symbol></svg>