<svg xmlns="http://www.w3.org/2000/svg" viewBox="0 0 16 13.76"><title>google plus</title><path d="M13.5,3.47V5.91h-1V3.47H10v-1h2.5V0h1V2.47H16v1ZM6.59,1A2.56,2.56,0,0,1,8,3.33a2.73,2.73,0,0,1-1.24,2.1,1.37,1.37,0,0,0-.81,1.18A2.66,2.66,0,0,0,7.06,7.9,2.87,2.87,0,0,1,8.5,10.6c0,1.49-1.44,3.17-4.12,3.17C2,13.77,0,12.65,0,11.15s1.87-3,4.21-3h.73A1.6,1.6,0,0,1,4.37,7a1.79,1.79,0,0,1,.21-.79c-.13,0-.26,0-.39,0A3,3,0,0,1,1,3.3V3.15C1,1.51,2.76,0,4.65,0H8.87L7.92,1H6.59ZM4.66,8.55c-1.62,0-3.07,1-3.07,2.15s1.17,2.1,2.78,2.1c2.28,0,3.08-.82,3.08-2a1.59,1.59,0,0,0-.06-.43c-.17-.69-.8-1-1.68-1.62A3.44,3.44,0,0,0,4.66,8.55Zm1.82-5.2A2.82,2.82,0,0,0,4.12.79C3,.76,2.3,1.83,2.49,3.23A2.84,2.84,0,0,0,4.8,5.83C5.89,5.86,6.66,4.75,6.48,3.35Z" transform="translate(0 -0.01)" fill="#95e1d3" fill-rule="evenodd"/></svg>