<svg xmlns="http://www.w3.org/2000/svg" viewBox="0 0 10 16.01"><title>tumblr</title><path d="M10,15.15a9.29,9.29,0,0,1-1.85.67,7.74,7.74,0,0,1-1.79.2,4.81,4.81,0,0,1-1.72-.28A4,4,0,0,1,3.22,15a2.84,2.84,0,0,1-.82-1.09,4.78,4.78,0,0,1-.23-1.68V6.57H0V4.3a5.49,5.49,0,0,0,1.8-.88A4.34,4.34,0,0,0,2.88,2.05a6.25,6.25,0,0,0,.56-2H5.7v3.7H9.38V6.57H5.7v4.1a7.15,7.15,0,0,0,.09,1.73,1.44,1.44,0,0,0,.6.69,2.26,2.26,0,0,0,1.21.32A4.26,4.26,0,0,0,10,12.62v2.53Z" transform="translate(-0.01 -0.01)" fill="#95e1d3" fill-rule="evenodd"/></svg>