<svg xmlns="http://www.w3.org/2000/svg" viewBox="0 0 16 16.02"><title>dribbble</title><path d="M15.84,6.4a7.91,7.91,0,0,0-.47-1.5,8.12,8.12,0,0,0-1.71-2.54,8.61,8.61,0,0,0-1.19-1,8,8,0,0,0-8.94,0,8.61,8.61,0,0,0-1.19,1A8.12,8.12,0,0,0,.63,4.9,7.91,7.91,0,0,0,.16,6.4a8.36,8.36,0,0,0,0,3.23,7.69,7.69,0,0,0,.47,1.5,8.12,8.12,0,0,0,1.71,2.54,8.61,8.61,0,0,0,1.19,1,8,8,0,0,0,8.94,0,8.61,8.61,0,0,0,1.19-1,8.12,8.12,0,0,0,1.71-2.54,7.69,7.69,0,0,0,.47-1.5A8.36,8.36,0,0,0,15.84,6.4ZM14.83,8a16.18,16.18,0,0,0-4.76-.23l-.15-.35c-.14-.33-.29-.67-.45-1a8.89,8.89,0,0,0,3.81-2.7A6.78,6.78,0,0,1,14.83,8ZM12.51,2.89A7.44,7.44,0,0,1,8.94,5.36a34,34,0,0,0-2.55-4,6.75,6.75,0,0,1,6.12,1.51ZM6.36,1.38Zm-1.28.46A38.72,38.72,0,0,1,7.62,5.77a25.84,25.84,0,0,1-6.31.84A6.83,6.83,0,0,1,5.09,1.84ZM1.17,8V7.8a25.19,25.19,0,0,0,7-1c.2.38.39.77.56,1.16l-.27.08a10.84,10.84,0,0,0-5.56,4.51h0A6.75,6.75,0,0,1,1.17,8ZM8,14.85a6.77,6.77,0,0,1-4.35-1.57l.15.12A9.23,9.23,0,0,1,9.16,9.13h.05a28.39,28.39,0,0,1,1.46,5.19A6.81,6.81,0,0,1,8,14.85Zm3.82-1.17A30.63,30.63,0,0,0,10.49,8.8a9.9,9.9,0,0,1,4.26.3,6.82,6.82,0,0,1-2.93,4.58Z" transform="translate(0 -0.01)" fill="#95e1d3" fill-rule="evenodd"/></svg>