<svg xmlns="http://www.w3.org/2000/svg" viewBox="0 0 19.6 25.65"><title>pinterest</title><path d="M8.15,16.63c-.21.84-.42,1.71-.64,2.56a21.15,21.15,0,0,1-.72,2.47,13,13,0,0,1-2,3.53c-.58.66-.46.4-.63.36S4,25.39,4,25.21a19.61,19.61,0,0,1,0-3.34,17.73,17.73,0,0,1,.59-3.47C5,16.33,5.49,14.31,6,12.23a1.12,1.12,0,0,0,.09-.44,6.63,6.63,0,0,1-.43-1.7,5.58,5.58,0,0,1,.14-1.95A3.23,3.23,0,0,1,7.68,5.8a2.22,2.22,0,0,1,1.73.14,1.86,1.86,0,0,1,.87,1.24,4.47,4.47,0,0,1-.08,1.89c-.27,1.22-.62,2.14-.94,3.31a3.72,3.72,0,0,0-.19,1.81,2.13,2.13,0,0,0,.85,1.28,2.48,2.48,0,0,0,1.62.46,3.56,3.56,0,0,0,2.65-1.57,9.22,9.22,0,0,0,1.68-4.69,12.29,12.29,0,0,0,.07-2,5.45,5.45,0,0,0-1.13-3.12A5.27,5.27,0,0,0,12.3,2.83,8.34,8.34,0,0,0,8.55,2.6,6.6,6.6,0,0,0,3.64,6.13,7.11,7.11,0,0,0,2.8,9.54,4.43,4.43,0,0,0,3.48,12c.13.2.33.37.46.6a1.78,1.78,0,0,1-.12,1.16c-.11.43-.12,1-.62,1a1.35,1.35,0,0,1-.64-.24A5.12,5.12,0,0,1,.14,10.84a8.77,8.77,0,0,1,0-3.23,9.23,9.23,0,0,1,4.4-6.15A10.45,10.45,0,0,1,8.45.12,12.32,12.32,0,0,1,10.05,0a9.6,9.6,0,0,1,4.33.8,8.82,8.82,0,0,1,3,2.15,8.12,8.12,0,0,1,1.83,3.31,7.76,7.76,0,0,1,.4,2.29,12.61,12.61,0,0,1-.31,2.37,9.32,9.32,0,0,1-3.83,6.45,6.92,6.92,0,0,1-4,1.1,4.63,4.63,0,0,1-2-.58A3.28,3.28,0,0,1,8.15,16.63Z" transform="translate(0.01 0.02)" fill="#f38181" fill-rule="evenodd"/></svg>