<svg xmlns="http://www.w3.org/2000/svg" viewBox="0 0 32.01 30.52"><title>alarm</title><path d="M30.74,9.5A15.73,15.73,0,0,0,22.5,1.26,5.87,5.87,0,0,1,30.74,9.5ZM30.5,16a14.46,14.46,0,0,1-4,9.94l2,2a1.5,1.5,0,0,1,0,2.1,1.53,1.53,0,0,1-1.05.43,1.51,1.51,0,0,1-1.05-.43l-2.18-2.18a14.47,14.47,0,0,1-16.57,0L5.56,30.06A1.5,1.5,0,0,1,3.41,28l0,0,2-2A14.5,14.5,0,1,1,30.5,16ZM16,4.5A11.5,11.5,0,1,0,27.5,16,11.5,11.5,0,0,0,16,4.5Zm6,13H16A1.5,1.5,0,0,1,14.5,16V8a1.5,1.5,0,0,1,3,0v6.5H22a1.5,1.5,0,0,1,0,3ZM1.29,9.71A6,6,0,0,1,9.71,1.29,16,16,0,0,0,1.29,9.71Z" transform="translate(0.01 0)" fill="#95e1d3" fill-rule="evenodd"/></svg>