<svg xmlns="http://www.w3.org/2000/svg" viewBox="0 0 32 30.5"><title>home</title><path d="M32,16a1.5,1.5,0,0,1-1.49,1.5,1.52,1.52,0,0,1-1-.41h0L16,3.66h0l0,0h0L2.56,17.07h0a1.55,1.55,0,0,1-1.06.43,1.5,1.5,0,0,1-1-2.58L14.92.46A1.54,1.54,0,0,1,16,0h.16a1.54,1.54,0,0,1,.94.47h0L23,6.38V5a1.5,1.5,0,0,1,3,0V9.38L31.6,15h0A1.49,1.49,0,0,1,32,16Zm-3,2.5V29a1.5,1.5,0,0,1-1.5,1.5h-3v-12h-6v12H4.5A1.5,1.5,0,0,1,3,29V18.5l13-13Zm-15.5,0h-6v6h6Z" transform="translate(0)" fill="#95e1d3" fill-rule="evenodd"/></svg>