<svg xmlns="http://www.w3.org/2000/svg" viewBox="0 0 32 32"><title>image</title><path d="M30.5,32H1.5A1.5,1.5,0,0,1,0,30.5V1.5A1.5,1.5,0,0,1,1.5,0h29A1.5,1.5,0,0,1,32,1.5v29A1.5,1.5,0,0,1,30.5,32ZM29,3H3V29H29ZM6.5,4.5H12a1.5,1.5,0,0,1,0,3H7.5V12h0a1.5,1.5,0,0,1-3,0h0V6.5h0v-2ZM4.5,20h0a1.5,1.5,0,0,1,3,0h0v4.5H12a1.5,1.5,0,0,1,0,3H4.5v-2h0ZM20,4.5h7.5v2h0V12h0a1.5,1.5,0,0,1-3,0h0V7.5H20a1.5,1.5,0,0,1,0-3Zm0,20h4.5V20h0a1.5,1.5,0,0,1,3,0h0v5.5h0v2H20a1.5,1.5,0,0,1,0-3Z" fill="#95e1d3" fill-rule="evenodd"/></svg>