<svg xmlns="http://www.w3.org/2000/svg" viewBox="0 0 30.02 30.02"><path d="M30.01 24.01a1.5 1.5 0 01-1 1.41v1.68a1.5 1.5 0 11-1 2.83 1.49 1.49 0 01-.93-.92h-1.66a1.49 1.49 0 01-2.82 0h-1.68a1.49 1.49 0 01-2.82 0h-1.68a1.49 1.49 0 01-2.82 0h-1.68a1.49 1.49 0 01-2.82 0H7.42a1.49 1.49 0 01-2.82 0H2.92a1.505 1.505 0 01-2.84-1 1.54 1.54 0 01.93-.91v-1.68a1.49 1.49 0 010-2.82v-1.68a1.49 1.49 0 010-2.82v-1.68a1.49 1.49 0 010-2.82v-1.68a1.49 1.49 0 010-2.82V7.42a1.49 1.49 0 010-2.82V2.92a1.5 1.5 0 111-2.83 1.49 1.49 0 01.91.92H4.6a1.49 1.49 0 012.82 0H9.1a1.49 1.49 0 012.82 0h1.68a1.49 1.49 0 012.82 0h1.68a1.49 1.49 0 012.82 0h1.68a1.49 1.49 0 012.82 0h1.68a1.505 1.505 0 012.84 1 1.54 1.54 0 01-.93.92V4.6a1.49 1.49 0 010 2.82V9.1a1.49 1.49 0 010 2.82v1.68a1.49 1.49 0 010 2.82v1.68a1.49 1.49 0 010 2.82v1.68a1.5 1.5 0 011 1.41zm-4-20h-22v22h22zm-13 16l7-8.5 4.5 7v6h-19l6-6zm-3-7a3 3 0 113-3 3 3 0 01-3 3z" fill="#fff" fill-rule="evenodd"/></svg>